<svg width="48" height="51" viewBox="0 0 48 51" fill="none" xmlns="http://www.w3.org/2000/svg">
<path d="M29.2442 12.7574C29.0659 11.8285 28.9042 11.0441 28.7694 10.2531C28.5434 8.93761 29.0286 8.09766 30.2457 7.80212C32.5243 7.2466 34.805 6.71108 37.094 6.21111C38.5247 5.89779 39.24 6.42443 39.5531 7.94878C41.2138 16.0394 42.8642 24.1322 44.5229 32.2228C45.3917 36.467 46.2646 40.709 47.1395 44.951C47.5915 47.1397 47.1914 47.8063 45.147 48.2796C43.1317 48.7463 41.1205 49.224 39.1052 49.6951C37.5212 50.0662 36.8038 49.5662 36.4513 47.8441C34.7221 39.3935 32.995 30.9407 31.2637 22.4901C31.1994 22.179 31.1103 21.8724 30.8739 21.5768C30.8739 21.9568 30.8739 22.3346 30.8739 22.7145C30.8739 30.8629 30.8739 39.0113 30.8718 47.1597C30.8718 49.2929 30.1876 50.0284 28.2096 50.0306C26.6276 50.0329 25.0436 50.044 23.4616 50.0262C21.9625 50.0084 21.1705 49.1663 21.1705 47.5552C21.1622 36.7892 21.1643 26.021 21.1705 15.255C21.1726 13.604 21.8983 12.7951 23.4346 12.7663C25.3276 12.7307 27.2185 12.7574 29.2442 12.7574ZM31.4109 14.4284C33.4242 24.2633 35.4022 33.9183 37.4071 43.7021C39.8827 43.12 42.2754 42.5555 44.7178 41.9823C42.7108 32.1806 40.7266 22.4923 38.7216 12.7085C36.2522 13.2885 33.8886 13.844 31.4109 14.4284ZM22.9889 24.5989C22.9889 29.1497 22.9889 33.6561 22.9889 38.1958C25.0332 38.1958 27.0071 38.1958 29.0016 38.1958C29.0016 33.6272 29.0016 29.1275 29.0016 24.5989C26.9946 24.5989 25.0747 24.5989 22.9889 24.5989ZM23.0013 14.6306C23.0013 15.9594 23.0013 17.146 23.0013 18.3281C25.0602 18.3281 27.0361 18.3281 29.0867 18.3281C29.0867 17.2638 29.124 16.2727 29.0597 15.2906C29.0431 15.0572 28.6865 14.6661 28.4792 14.6595C26.694 14.6106 24.9109 14.6306 23.0013 14.6306ZM29.0846 44.4754C26.9884 44.4754 24.9917 44.4754 22.9225 44.4754C22.9225 45.5243 22.8748 46.482 22.9536 47.4264C22.9743 47.6752 23.3807 48.0774 23.6192 48.0863C25.2302 48.1441 26.8433 48.1396 28.4564 48.0863C28.672 48.0797 29.041 47.7041 29.0556 47.4775C29.1219 46.4931 29.0846 45.5043 29.0846 44.4754ZM37.7347 7.97989C35.255 8.56652 32.8747 9.13093 30.4406 9.70867C30.6583 10.7286 30.8449 11.6041 31.0501 12.5685C33.5506 11.9774 35.935 11.4152 38.3505 10.8464C38.1286 9.81311 37.9379 8.93316 37.7347 7.97989ZM45.5907 46.2331C45.4062 45.3798 45.2445 44.6399 45.0703 43.8355C42.6341 44.4132 40.2704 44.9732 37.8052 45.5576C37.9711 46.3998 38.1162 47.1286 38.2779 47.9486C40.7971 47.3597 43.1628 46.8042 45.5907 46.2331ZM22.9951 42.4222C25.0726 42.4222 27.0506 42.4222 28.9996 42.4222C28.9996 41.6267 28.9996 40.9134 28.9996 40.169C26.9614 40.169 25.0166 40.169 22.9951 40.169C22.9951 40.9356 22.9951 41.6512 22.9951 42.4222ZM29.0141 22.5857C29.0141 21.779 29.0141 21.0991 29.0141 20.3991C26.9677 20.3991 24.9959 20.3991 22.9764 20.3991C22.9764 21.1546 22.9764 21.8368 22.9764 22.5857C25.0083 22.5857 26.9822 22.5857 29.0141 22.5857Z" fill="#FFE605"/>
<path d="M9.70268 25.0144C9.70268 32.3139 9.70475 39.6135 9.7006 46.913C9.69853 49.404 9.10762 50.0239 6.75848 50.0262C5.41701 50.0284 4.07554 50.0262 2.73406 50.0262C0.683495 50.0239 0.00342744 49.3129 0.00342744 47.1219C-0.000719316 36.8736 0.00135401 26.6232 0.00135401 16.3749C0.00135401 11.9129 -0.00279269 7.45322 0.00342744 2.99127C0.00550081 0.673636 0.62544 0.00478793 2.7465 0.00256584C4.22482 0.000343758 5.70521 -0.00187833 7.18353 0.00256584C8.97285 0.00701002 9.69438 0.751409 9.69853 2.67129C9.7089 8.57093 9.70268 14.4683 9.70268 20.368C9.70268 21.919 9.70268 23.4678 9.70268 25.0144ZM7.86567 38.2136C7.86567 29.3408 7.86567 20.5969 7.86567 11.8552C5.80266 11.8552 3.82466 11.8552 1.828 11.8552C1.828 20.6724 1.828 29.4185 1.828 38.2136C3.8682 38.2136 5.8462 38.2136 7.86567 38.2136ZM1.80104 5.59111C3.88064 5.59111 5.88352 5.59111 7.89055 5.59111C7.89055 4.34897 7.89055 3.18904 7.89055 1.978C5.83169 1.978 3.83503 1.978 1.80104 1.978C1.80104 3.20904 1.80104 4.3423 1.80104 5.59111ZM1.80104 48.1085C3.74794 48.1085 5.59325 48.1263 7.43855 48.0796C7.61272 48.0752 7.91543 47.6863 7.92787 47.4619C7.98178 46.4819 7.95068 45.4953 7.95068 44.4487C5.85035 44.4487 3.84332 44.4487 1.80104 44.4487C1.80104 45.6487 1.80104 46.7797 1.80104 48.1085ZM1.80104 9.86418C3.8993 9.86418 5.87937 9.86418 7.89055 9.86418C7.89055 9.07757 7.89055 8.36205 7.89055 7.62654C5.82547 7.62654 3.81844 7.62654 1.80104 7.62654C1.80104 8.39983 1.80104 9.0909 1.80104 9.86418ZM1.83629 40.1801C1.83629 41.0023 1.83629 41.72 1.83629 42.4444C3.88893 42.4444 5.86901 42.4444 7.89469 42.4444C7.89469 41.6711 7.89469 40.9556 7.89469 40.1801C5.86071 40.1801 3.88271 40.1801 1.83629 40.1801Z" fill="white"/>
<path d="M18.9292 27.1453C18.9292 33.8183 18.9313 40.489 18.9292 47.1619C18.9292 49.3062 18.2616 50.0239 16.2857 50.0284C15.701 50.0306 15.1163 50.0306 14.5316 50.0284C12.5826 50.0239 11.8922 49.2729 11.8922 47.1352C11.8901 41.9378 11.8901 36.7403 11.8901 31.5428C11.8901 23.3967 11.8901 15.2505 11.8922 7.10211C11.8922 4.97113 12.5764 4.23784 14.5544 4.2334C15.1744 4.23118 15.7922 4.22896 16.4122 4.2334C18.2036 4.24451 18.9272 5.00002 18.9272 6.90657C18.9334 13.6528 18.9292 20.3991 18.9292 27.1453ZM13.7603 11.8463C13.7603 22.0768 13.7603 32.2539 13.7603 42.4355C14.9318 42.4355 16.0141 42.4355 17.1316 42.4355C17.1316 32.2139 17.1316 22.0612 17.1316 11.8463C15.9788 11.8463 14.8965 11.8463 13.7603 11.8463ZM17.1171 9.87305C17.4841 6.17328 17.2871 5.9133 14.3927 6.13995C14.3243 6.14439 14.231 6.11551 14.1916 6.15328C14.0133 6.31994 13.7147 6.49993 13.7064 6.68658C13.6587 7.73096 13.6836 8.78201 13.6836 9.87305C14.9069 9.87305 15.983 9.87305 17.1171 9.87305ZM13.7997 44.4443C13.2171 47.813 13.5799 48.3085 16.4288 48.1152C16.5304 48.1085 16.663 48.1463 16.7294 48.0929C16.8973 47.9552 17.1586 47.7796 17.1648 47.6107C17.2042 46.5686 17.1855 45.522 17.1855 44.4443C15.9498 44.4443 14.8696 44.4443 13.7997 44.4443Z" fill="white"/>
</svg>
