<svg width="47" height="58" viewBox="0 0 47 58" fill="none" xmlns="http://www.w3.org/2000/svg">
<g clip-path="url(#clip0_693_102)">
<path d="M3.6962 45.8429C3.18977 45.871 2.88171 45.8967 2.57365 45.9061C1.5818 45.9342 0.734633 46.2245 0.249207 47.1749C-0.268892 48.1886 0.0881758 49.0525 0.704294 49.8812C1.51645 50.9745 2.34261 52.0607 3.10342 53.1891C3.39281 53.6199 3.60518 54.1443 3.70087 54.657C4.04627 56.5205 5.15481 57.5295 7.07551 57.5318C18.0349 57.5435 28.9944 57.5435 39.9538 57.5318C41.8698 57.5295 42.9644 56.5205 43.3028 54.6359C43.3891 54.1607 43.5782 53.6667 43.8489 53.2711C44.7054 52.0186 45.6646 50.834 46.5071 49.5722C47.6179 47.9077 46.7521 46.1425 44.7614 45.9295C44.3133 45.8803 43.8606 45.8663 43.3098 45.8288C43.3098 45.3115 43.3098 44.8877 43.3098 44.4663C43.3098 40.9196 43.3121 37.3706 43.3098 33.8239C43.3074 30.7056 41.6691 29.0083 38.6002 29.006C28.5346 28.9966 18.469 28.9989 8.40343 29.0083C5.39519 29.0106 3.70554 30.7196 3.69853 33.7232C3.6892 37.3097 3.6962 40.8962 3.69387 44.4827C3.6962 44.9018 3.6962 45.3232 3.6962 45.8429Z" fill="#035685"/>
<path d="M31.9995 42.8855C31.9995 47.5799 28.1939 51.3855 23.4995 51.3855C18.8051 51.3855 14.9995 47.5799 14.9995 42.8855C14.9995 38.1911 18.8051 34.3855 23.4995 34.3855C28.1939 34.3855 31.9995 38.1911 31.9995 42.8855Z" fill="#FFE605"/>
<path d="M19.9912 18.6793C19.4427 20.2408 18.857 20.8308 17.5431 21.423C15.5943 22.2986 13.627 23.1484 11.7553 24.1668C10.8684 24.6514 10.152 25.4754 9.41683 26.2035C9.0831 26.5336 9.04809 27.0697 9.54285 27.278C9.78323 27.3787 10.313 27.1867 10.495 26.9573C12.222 24.7684 14.9456 24.436 17.0833 23.0946C20.1849 27.1305 25.9027 27.8797 29.9448 23.1601C31.219 23.7477 32.5119 24.354 33.8165 24.944C34.855 25.4146 35.8259 25.96 36.484 26.9456C36.7407 27.3295 37.0931 27.6175 37.5482 27.2593C37.98 26.9199 37.8889 26.4423 37.5529 26.1333C36.7337 25.3794 35.9426 24.5296 34.9834 24.0123C33.142 23.0196 31.1513 22.3033 29.3006 21.3247C28.5165 20.9103 27.8817 20.1682 27.2656 19.4963C26.8362 19.0281 26.9692 18.5693 27.5013 18.1175C29.359 16.5396 30.3485 14.4607 30.7662 12.0822C31.121 10.0525 31.4757 8.0228 31.8375 5.9931C31.9868 5.155 32.0475 4.21389 31.3707 3.6895C30.3462 2.89588 29.716 1.80962 28.8759 0.889586C27.8677 -0.215395 26.4814 -0.0491793 25.1535 0.119377C22.8781 0.409669 20.6096 0.725712 18.3342 0.999616C15.494 1.34141 14.1334 3.32897 14.8382 6.12654C15.2373 7.71144 15.7764 9.28229 15.9607 10.8929C16.3201 14.0183 17.4357 16.6777 19.9912 18.6793Z" fill="white"/>
<path d="M3.69661 45.9573C3.69661 45.4353 3.69661 45.0162 3.69661 44.5948C3.69661 41.0083 3.69195 37.4218 3.70128 33.8353C3.70828 30.8317 5.39794 29.1251 8.40618 29.1204C18.4718 29.1087 28.5374 29.1087 38.603 29.1181C41.6695 29.1204 43.3102 30.8177 43.3125 33.936C43.3149 37.4827 43.3125 41.0317 43.3125 44.5785C43.3125 44.9998 43.3125 45.4236 43.3125 45.941C43.8633 45.9784 44.3161 45.9925 44.7641 46.0416C46.7549 46.2547 47.6207 48.0198 46.5098 49.6843C45.6673 50.9461 44.7081 52.1307 43.8516 53.3832C43.5809 53.7788 43.3895 54.2728 43.3055 54.748C42.9648 56.6326 41.8703 57.6416 39.9566 57.6439C28.9971 57.6556 18.0377 57.6556 7.07826 57.6439C5.15756 57.6416 4.04901 56.6326 3.70361 54.7691C3.60793 54.2587 3.39555 53.732 3.10617 53.3012C2.34535 52.1729 1.5192 51.0866 0.70704 49.9933C0.090922 49.1646 -0.26848 48.3007 0.251953 47.2871C0.737379 46.3366 1.58688 46.0463 2.5764 46.0182C2.88212 46.0112 3.19018 45.9854 3.69661 45.9573ZM23.5151 56.2744V56.2721C28.8804 56.2721 34.2481 56.2744 39.6135 56.2697C41.3498 56.2674 41.9263 55.6798 41.9286 53.9685C41.9286 47.3362 41.9309 40.7063 41.9356 34.0741C41.9379 31.5153 40.9577 30.5134 38.4373 30.5134C28.4837 30.5134 18.5278 30.5157 8.57421 30.518C6.10041 30.518 5.08521 31.52 5.08521 33.9711C5.08521 40.5635 5.09221 47.156 5.08754 53.7484C5.08521 55.7242 5.59164 56.2721 7.53335 56.2744C12.859 56.2767 18.1871 56.2744 23.5151 56.2744ZM3.63827 47.4463C3.07116 47.4463 2.6044 47.383 2.16565 47.4603C1.45152 47.5867 1.16679 48.1486 1.5472 48.7479C2.13531 49.6679 2.81211 50.5318 3.4539 51.419C3.51458 51.3816 3.57759 51.3441 3.63827 51.3067C3.63827 50.0729 3.63827 48.8392 3.63827 47.4463ZM43.4292 47.5024C43.4292 48.8509 43.4292 50.094 43.4292 51.5946C44.0617 50.7284 44.5541 50.0893 45.0069 49.4245C45.3149 48.9679 45.9777 48.4763 45.4643 47.9238C45.1422 47.5774 44.4584 47.5586 43.9286 47.4228C43.7956 47.3877 43.6346 47.465 43.4292 47.5024Z" fill="white"/>
<path d="M19.9912 18.6793C17.4357 16.6777 16.3201 14.0182 15.9607 10.8929C15.7764 9.28227 15.2373 7.70908 14.8382 6.12652C14.1334 3.32895 15.494 1.34373 18.3342 0.999595C20.6096 0.72569 22.8781 0.409647 25.1512 0.121697C26.4791 -0.0468599 27.8653 -0.213075 28.8735 0.891906C29.7137 1.81194 30.3438 2.89585 31.3683 3.69182C32.0428 4.21387 31.9821 5.15732 31.8351 5.99542C31.4757 8.02512 31.121 10.0548 30.7639 12.0845C30.3462 14.463 29.3566 16.5419 27.4989 18.1198C26.9668 18.5716 26.8338 19.0281 27.2632 19.4987C27.8793 20.1705 28.5141 20.915 29.2983 21.327C31.149 22.3056 33.1397 23.022 34.981 24.0146C35.9402 24.5319 36.7314 25.3818 37.5505 26.1356C37.8866 26.4446 37.9776 26.9222 37.5459 27.2616C37.0908 27.6198 36.736 27.3295 36.4817 26.9479C35.8235 25.9647 34.8527 25.4169 33.8141 24.9463C32.5119 24.3564 31.2167 23.75 29.9424 23.1624C25.9003 27.882 20.1825 27.1329 17.0809 23.0969C14.9409 24.4383 12.2197 24.7707 10.4927 26.9596C10.3106 27.1914 9.78088 27.381 9.5405 27.2804C9.04341 27.0743 9.08075 26.5359 9.41448 26.2058C10.1496 25.4777 10.8661 24.6513 11.7529 24.1691C13.6246 23.1484 15.5943 22.3009 17.5407 21.4254C18.8546 20.8307 19.4404 20.2408 19.9912 18.6793ZM23.8816 7.5452C21.5035 7.64587 19.3517 7.65055 17.9258 9.71537C17.5734 10.2257 17.3307 10.6729 17.41 11.3049C17.6527 13.2012 18.2805 14.9289 19.5524 16.3804C21.8535 19.007 25.1348 18.9719 27.3986 16.3055C28.7008 14.7721 29.3123 12.9484 29.5503 10.9819C29.5807 10.7244 29.5923 10.3709 29.4476 10.2C28.5818 9.17224 27.8233 7.97596 26.304 7.80506C25.4195 7.7044 24.5327 7.61544 23.8816 7.5452ZM16.8546 8.39033C16.9433 8.41374 17.0319 8.43949 17.1183 8.4629C18.7123 6.25528 21.053 6.14291 23.4172 6.12184C25.7953 6.10077 28.1547 6.16632 29.9027 8.4114C30.1361 7.31812 30.3438 6.48938 30.4838 5.64894C30.6355 4.74529 30.3718 4.21621 29.5457 4.05702C28.8665 3.92826 28.6985 3.5771 28.5561 2.98482C28.2901 1.86579 27.583 1.30159 26.4371 1.42333C23.5829 1.72532 20.731 2.0718 17.8931 2.49787C16.5652 2.69686 15.8487 3.71054 16.0447 5.0309C16.2151 6.16632 16.5768 7.2713 16.8546 8.39033ZM21.4965 19.5548C20.5116 20.6762 19.6108 21.7016 18.7006 22.7364C21.1534 25.8757 25.8139 25.8617 28.4605 22.521C27.1465 21.8327 26.206 20.7839 25.7416 19.5548C24.1943 19.5548 22.7824 19.5548 21.4965 19.5548Z" fill="white"/>
<path d="M3.63845 47.4463C3.63845 48.8416 3.63845 50.073 3.63845 51.3067C3.57777 51.3442 3.51476 51.3816 3.45408 51.4191C2.81462 50.5318 2.13549 49.668 1.54738 48.7479C1.16464 48.1509 1.4517 47.5868 2.16583 47.4603C2.60692 47.3831 3.07134 47.4463 3.63845 47.4463Z" fill="#454545"/>
<path d="M43.4292 47.5024C43.6346 47.465 43.7956 47.3877 43.9286 47.4205C44.4584 47.5563 45.1422 47.575 45.4643 47.9215C45.9777 48.474 45.3149 48.968 45.0068 49.4221C44.5564 50.0893 44.0617 50.7284 43.4292 51.5923C43.4292 50.0917 43.4292 48.8509 43.4292 47.5024Z" fill="#454545"/>
<path d="M23.8815 7.54523C24.535 7.61546 25.4195 7.70442 26.3063 7.80274C27.8256 7.97364 28.5841 9.16992 29.4499 10.1977C29.5946 10.3685 29.5829 10.722 29.5526 10.9796C29.3122 12.9461 28.7031 14.7674 27.4008 16.3031C25.1371 18.9696 21.8558 19.0047 19.5547 16.3781C18.2828 14.9266 17.655 13.1989 17.4123 11.3026C17.3306 10.6729 17.5756 10.2234 17.928 9.71305C19.3493 7.65058 21.5034 7.64823 23.8815 7.54523Z" fill="#035685"/>
<path d="M16.8546 8.39036C16.5768 7.27133 16.2151 6.16401 16.0447 5.0286C15.8487 3.70824 16.5628 2.6969 17.8931 2.49557C20.731 2.06949 23.5828 1.72302 26.4371 1.42102C27.5829 1.29929 28.2901 1.86348 28.5561 2.98251C28.6962 3.5748 28.8665 3.92596 29.5457 4.05471C30.3718 4.21391 30.6355 4.74299 30.4838 5.64664C30.3438 6.48708 30.1361 7.31581 29.9027 8.40909C28.1547 6.16401 25.7953 6.09846 23.4172 6.11953C21.053 6.1406 18.7146 6.25297 17.1183 8.46059C17.0319 8.43952 16.9432 8.41611 16.8546 8.39036Z" fill="#035685"/>
<path d="M21.4966 19.5549C22.7825 19.5549 24.1944 19.5549 25.7417 19.5549C26.2061 20.7839 27.1466 21.8327 28.4606 22.521C25.814 25.8617 21.1535 25.8757 18.7007 22.7364C19.6085 21.7016 20.5117 20.6739 21.4966 19.5549Z" fill="#035685"/>
<path d="M23.4652 50V48.3532C25.1176 48.084 26 46.9123 26 45.6614C26 44.2521 25.1658 43.4287 23.5134 42.7637C22.1176 42.1937 21.5241 41.782 21.5241 40.9586C21.5241 40.3252 21.9893 39.5968 23.2246 39.5968C24.2513 39.5968 24.9091 39.9452 25.246 40.1352L25.6471 39.0901C25.1818 38.821 24.5241 38.5676 23.5615 38.5359V37H22.5668V38.5993C21.0909 38.8368 20.1444 39.8343 20.1444 41.1486C20.1444 42.5262 21.1551 43.2546 22.7914 43.8879C23.9786 44.363 24.6043 44.9013 24.6043 45.7722C24.6043 46.6748 23.8342 47.324 22.6952 47.324C21.7968 47.324 20.9626 47.0231 20.385 46.6431L20 47.704C20.5615 48.0999 21.5241 48.3849 22.4545 48.4007V50H23.4652Z" fill="black"/>
</g>
<defs>
<clipPath id="clip0_693_102">
<rect width="47" height="57.6533" fill="white"/>
</clipPath>
</defs>
</svg>
