<svg width="16" height="16" viewBox="0 0 16 16" fill="none" xmlns="http://www.w3.org/2000/svg">
<path d="M13.3723 3.4614C13.3723 4.09175 12.8613 4.60275 12.231 4.60275C11.6006 4.60275 11.0896 4.09175 11.0896 3.4614C11.0896 2.83105 11.6006 2.32005 12.231 2.32005C12.8613 2.32005 13.3723 2.83105 13.3723 3.4614Z" fill="#004788"/>
<path fill-rule="evenodd" clip-rule="evenodd" d="M8.046 11.4508C10.1472 11.4508 11.8505 9.74751 11.8505 7.64635C11.8505 5.54518 10.1472 3.84185 8.046 3.84185C5.94484 3.84185 4.24151 5.54518 4.24151 7.64635C4.24151 9.74751 5.94484 11.4508 8.046 11.4508ZM8.046 9.92904C9.3067 9.92904 10.3287 8.90705 10.3287 7.64635C10.3287 6.38565 9.3067 5.36365 8.046 5.36365C6.78531 5.36365 5.76331 6.38565 5.76331 7.64635C5.76331 8.90705 6.78531 9.92904 8.046 9.92904Z" fill="#004788"/>
<path fill-rule="evenodd" clip-rule="evenodd" d="M0.437012 7.34199C0.437012 4.78513 0.437012 3.50669 0.93461 2.5301C1.37231 1.67107 2.07073 0.972652 2.92976 0.534952C3.90635 0.0373535 5.18478 0.0373535 7.74165 0.0373535H8.35036C10.9072 0.0373535 12.1857 0.0373535 13.1622 0.534952C14.0213 0.972652 14.7197 1.67107 15.1574 2.5301C15.655 3.50669 15.655 4.78513 15.655 7.34199V7.95071C15.655 10.5076 15.655 11.786 15.1574 12.7626C14.7197 13.6216 14.0213 14.32 13.1622 14.7577C12.1857 15.2553 10.9072 15.2553 8.35036 15.2553H7.74165C5.18478 15.2553 3.90635 15.2553 2.92976 14.7577C2.07073 14.32 1.37231 13.6216 0.93461 12.7626C0.437012 11.786 0.437012 10.5076 0.437012 7.95071V7.34199ZM7.74165 1.55915H8.35036C9.65391 1.55915 10.54 1.56034 11.225 1.6163C11.8922 1.67081 12.2334 1.76961 12.4714 1.89088C13.0441 2.18268 13.5097 2.6483 13.8015 3.22098C13.9227 3.45899 14.0215 3.80019 14.0761 4.46737C14.132 5.15231 14.1332 6.03844 14.1332 7.34199V7.95071C14.1332 9.25425 14.132 10.1404 14.0761 10.8253C14.0215 11.4925 13.9227 11.8337 13.8015 12.0717C13.5097 12.6444 13.0441 13.11 12.4714 13.4018C12.2334 13.5231 11.8922 13.6219 11.225 13.6764C10.54 13.7324 9.65391 13.7335 8.35036 13.7335H7.74165C6.4381 13.7335 5.55197 13.7324 4.86702 13.6764C4.19984 13.6219 3.85865 13.5231 3.62064 13.4018C3.04795 13.11 2.58234 12.6444 2.29054 12.0717C2.16927 11.8337 2.07047 11.4925 2.01596 10.8253C1.95999 10.1404 1.95881 9.25425 1.95881 7.95071V7.34199C1.95881 6.03844 1.95999 5.15231 2.01596 4.46737C2.07047 3.80019 2.16927 3.45899 2.29054 3.22098C2.58234 2.6483 3.04795 2.18268 3.62064 1.89088C3.85865 1.76961 4.19984 1.67081 4.86702 1.6163C5.55197 1.56034 6.4381 1.55915 7.74165 1.55915Z" fill="#004788"/>
</svg>
