<svg width="16" height="16" viewBox="0 0 16 16" fill="none" xmlns="http://www.w3.org/2000/svg">
<path d="M4.07666 1.87672C4.07666 2.89257 3.25485 3.71608 2.24109 3.71608C1.22733 3.71608 0.405518 2.89257 0.405518 1.87672C0.405518 0.860865 1.22733 0.0373535 2.24109 0.0373535C3.25485 0.0373535 4.07666 0.860865 4.07666 1.87672Z" fill="#004788"/>
<path d="M0.656536 5.06809H3.79426V15.2553H0.656536V5.06809Z" fill="#004788"/>
<path d="M8.84601 5.06809H5.70828V15.2553H8.84601C8.84601 15.2553 8.84601 12.0482 8.84601 10.043C8.84601 8.83946 9.22957 7.63062 10.76 7.63062C12.4896 7.63062 12.4792 9.20568 12.4712 10.4259C12.4606 12.0209 12.4858 13.6486 12.4858 15.2553H15.6235V9.87874C15.5969 6.44562 14.762 4.86372 12.0151 4.86372C10.3838 4.86372 9.37267 5.6572 8.84601 6.37509V5.06809Z" fill="#004788"/>
</svg>
