<svg width="60" height="60" viewBox="0 0 60 60" fill="none" xmlns="http://www.w3.org/2000/svg">
<g clip-path="url(#clip0_450_4404)">
<path d="M59.2652 4.08166C58.9587 4.50072 58.5053 4.37221 58.1079 4.35545C57.7217 4.34008 57.6308 4.46999 57.6406 4.83457C57.6657 5.68946 57.6405 6.54575 57.6517 7.40203C57.6587 7.88116 57.46 8.08091 56.9675 8.08371C55.785 8.08929 55.785 8.10466 55.785 9.2962C55.785 21.0663 55.785 32.8377 55.785 44.6078C55.785 45.6303 55.778 45.6373 54.7817 45.6373C46.7998 45.6373 38.8179 45.6415 30.8374 45.6261C30.356 45.6247 30.2063 45.7099 30.2091 46.2324C30.237 49.997 30.2328 53.7629 30.2133 57.5275C30.2105 58.0206 30.3 58.1896 30.8458 58.1854C34.9599 58.1589 39.0754 58.1701 43.1894 58.1715C43.4511 58.1715 43.731 58.1268 43.8849 58.4327C44.0249 58.7093 43.8289 58.8895 43.7156 59.0948C34.568 59.0948 25.4219 59.0948 16.2743 59.0948C16.1596 58.8895 15.9651 58.7093 16.105 58.4327C16.2603 58.1268 16.5388 58.1715 16.8005 58.1715C20.783 58.1701 24.7642 58.1631 28.7467 58.1799C29.1819 58.1813 29.3177 58.0905 29.3149 57.6281C29.2939 53.8244 29.2939 50.0207 29.3149 46.217C29.3177 45.7477 29.2113 45.6233 28.7299 45.6247C20.7089 45.6415 12.6878 45.6373 4.66669 45.6359C3.7851 45.6359 3.73752 45.5884 3.73752 44.7014C3.73752 32.7008 3.73333 20.6989 3.75012 8.69833C3.75152 8.16752 3.60458 8.04739 3.09942 8.06275C1.88058 8.10047 1.87918 8.07393 1.87918 6.85725C1.87918 6.15322 1.86519 5.4492 1.88618 4.74657C1.89598 4.44624 1.80642 4.31913 1.50416 4.36522C1.46638 4.37081 1.42859 4.36662 1.38941 4.36522C1.06616 4.36103 0.740112 4.31913 0.735914 3.90705C0.730316 3.49916 1.04377 3.4349 1.37402 3.42932C1.88758 3.42094 2.40254 3.40557 2.9161 3.40557C11.5095 3.40417 20.1015 3.39998 28.695 3.41535C29.1805 3.41674 29.382 3.32874 29.3149 2.80631C29.2645 2.41379 29.3093 2.00869 29.3037 1.60919C29.2995 1.27114 29.2981 0.907956 29.7515 0.900972C30.2468 0.893987 30.2314 1.28232 30.2272 1.63713C30.2231 2.11206 30.2426 2.5884 30.2203 3.06334C30.2063 3.3455 30.307 3.41535 30.5757 3.40836C31.2614 3.3916 31.9471 3.40278 32.6327 3.40278C40.4061 3.40278 48.1795 3.40138 55.9529 3.40417C56.8093 3.40417 57.6671 3.43211 58.5235 3.42094C58.802 3.41674 59.0301 3.51732 59.2666 3.62209C59.2652 3.77714 59.2652 3.9294 59.2652 4.08166Z" fill="black"/>
<path d="M52.778 7.44946C52.722 7.89227 52.9291 8.09063 53.3643 8.07666C53.3839 8.07666 53.4021 8.07666 53.4217 8.07666C53.8765 8.08923 54.5034 7.9244 54.7413 8.15768C55.0491 8.4594 54.842 9.0866 54.842 9.57271C54.8476 21.062 54.842 32.5513 54.8574 44.0406C54.8588 44.5603 54.7805 44.7321 54.2011 44.7321C37.9085 44.7125 21.6158 44.7125 5.32317 44.7321C4.74944 44.7321 4.66268 44.5672 4.66408 44.0434C4.67947 32.2691 4.67947 20.4949 4.66548 8.71922C4.66548 8.22473 4.75644 8.06269 5.29799 8.06409C19.7421 8.08085 34.1862 8.07806 48.6303 8.07526C48.941 8.07526 49.2992 8.17584 49.4741 7.77633C49.4853 7.5221 49.5035 7.26647 49.8436 7.24831C50.7335 7.20222 51.6235 7.18266 52.5121 7.26228C52.6255 7.27206 52.729 7.33073 52.778 7.44946Z" fill="#F3EEEE"/>
<path d="M52.7776 7.44951C51.7757 7.31541 50.7695 7.42855 49.7676 7.38665C49.4444 7.37268 49.6263 7.69117 49.4737 7.77777C49.5143 7.20924 49.1743 7.15057 48.7125 7.15057C42.3874 7.16035 36.0624 7.15616 29.7373 7.15616C20.9745 7.15616 12.2104 7.15197 3.44767 7.16873C2.92571 7.17013 2.74799 7.04162 2.79277 6.5136C2.84035 5.94647 2.81656 5.37375 2.79837 4.80243C2.78997 4.51327 2.87394 4.3694 3.18179 4.40432C3.29514 4.41689 3.40989 4.40571 3.52463 4.40571C21.0137 4.40571 38.5028 4.40571 55.9905 4.40571C56.7224 4.40571 56.7224 4.40571 56.7238 5.13349C56.7238 5.62798 56.6972 6.12387 56.7322 6.61697C56.7602 7.03184 56.6496 7.1841 56.2032 7.16594C55.2909 7.12962 54.3743 7.15896 53.4605 7.15197C53.1806 7.15197 52.9259 7.16873 52.7776 7.44951Z" fill="#D2F7FF"/>
<path d="M16.8115 26.1243C16.7989 18.8033 22.7546 12.8596 30.097 12.8638C37.4072 12.868 43.3419 18.7795 43.3712 26.0866C43.4006 33.3992 37.4674 39.3429 30.1096 39.3695C22.777 39.3946 16.8241 33.4663 16.8115 26.1243Z" fill="black"/>
<path d="M17.7466 26.0461C17.7662 19.2126 23.2825 13.7313 30.1155 13.7564C36.9541 13.7816 42.4998 19.3118 42.4438 26.0992C42.3878 32.9244 36.9905 38.3945 30.0609 38.4043C23.2195 38.4141 17.727 32.8531 17.7466 26.0461Z" fill="#00A3FF"/>
<path d="M35.9602 25.9791C35.984 26.6482 35.588 27.0952 35.066 27.4528C34.3132 27.9697 33.5463 28.4656 32.7879 28.974C31.1591 30.065 29.5344 31.1587 27.9042 32.2469C26.9722 32.8685 25.8233 32.3768 25.6358 31.2775C25.591 31.0163 25.57 30.7495 25.57 30.4841C25.5658 27.5352 25.5658 24.5878 25.57 21.639C25.57 21.3555 25.5924 21.0677 25.6428 20.7897C25.8023 19.9251 26.5692 19.4418 27.4284 19.6471C27.7684 19.7281 28.0623 19.9027 28.3478 20.0927C30.5545 21.551 32.7613 23.0094 34.9667 24.4705C35.504 24.8253 35.977 25.2304 35.9602 25.9791Z" fill="black"/>
<path d="M26.459 26.081C26.459 24.5417 26.4548 23.0009 26.4604 21.4616C26.4632 20.6123 26.9138 20.3357 27.6303 20.8008C29.9574 22.3123 32.2705 23.8432 34.5753 25.3896C35.2232 25.824 35.2246 26.2906 34.5697 26.7348C32.2733 28.2923 29.9658 29.833 27.6443 31.3514C26.8816 31.8501 26.4632 31.5973 26.4604 30.7019C26.4562 29.1611 26.459 27.6218 26.459 26.081Z" fill="#F3EEEE"/>
</g>
<defs>
<clipPath id="clip0_450_4404">
<rect width="60" height="60" fill="white"/>
</clipPath>
</defs>
</svg>
