<svg width="48" height="51" viewBox="0 0 48 51" fill="none" xmlns="http://www.w3.org/2000/svg">
<path d="M19.2077 40.9761C15.2006 40.9741 11.2942 39.6367 8.03526 37.1508C4.77628 34.6649 2.3277 31.1551 1.03212 27.1122C-0.263469 23.0694 -0.341248 18.6959 0.809663 14.6036C1.96057 10.5113 4.28259 6.90499 7.45085 4.2892C10.6191 1.6734 14.4751 0.179006 18.4793 0.0150909C22.4835 -0.148824 26.4356 1.02594 29.7826 3.37503C33.1297 5.72411 35.7042 9.12999 37.1461 13.1161C38.5879 17.1023 38.8249 21.4693 37.8239 25.6061C37.719 26.0029 37.4726 26.3401 37.1374 26.5456C36.8022 26.751 36.4049 26.8084 36.0306 26.7053C35.6562 26.6022 35.3346 26.3469 35.1346 25.9941C34.9347 25.6413 34.8723 25.219 34.9608 24.8178C35.305 23.4007 35.478 21.9425 35.4754 20.4786C35.4754 17.0483 34.5213 13.695 32.7338 10.8428C30.9463 7.99054 28.4056 5.76751 25.4331 4.45478C22.4606 3.14205 19.1897 2.79858 16.0341 3.46781C12.8784 4.13703 9.97983 5.78889 7.70475 8.2145C5.42968 10.6401 3.88033 13.7305 3.25264 17.0949C2.62495 20.4594 2.9471 23.9467 4.17836 27.1159C5.40962 30.2851 7.49469 32.9939 10.1699 34.8996C12.8451 36.8054 15.9903 37.8226 19.2077 37.8226C22.5275 37.8343 25.7693 36.7498 28.4877 34.7181C30.0805 33.5523 31.4586 32.0841 32.5531 30.3868C32.7749 30.0416 33.1163 29.8044 33.5021 29.7276C33.8878 29.6507 34.2865 29.7403 34.6103 29.9768C34.934 30.2133 35.1564 30.5772 35.2286 30.9885C35.3007 31.3998 35.2166 31.8249 34.9948 32.1701C33.6971 34.1809 32.0652 35.9214 30.1795 37.3055C26.9651 39.7067 23.1326 40.9888 19.2077 40.9761Z" fill="white"/>
<path d="M42.6909 50.4365C41.4675 50.433 40.2946 49.9152 39.4271 48.9954L28.2926 37.1242C28.0232 36.8268 27.8741 36.4285 27.8775 36.0151C27.8809 35.6017 28.0364 35.2062 28.3106 34.9139C28.5848 34.6215 28.9557 34.4557 29.3435 34.4521C29.7312 34.4485 30.1048 34.6075 30.3837 34.8947L41.5182 46.7659C41.8292 47.0975 42.2511 47.2838 42.6909 47.2838C43.1308 47.2838 43.5527 47.0975 43.8637 46.7659C44.1747 46.4343 44.3495 45.9845 44.3495 45.5155C44.3495 45.0466 44.1747 44.5968 43.8637 44.2652L32.7292 32.394C32.4598 32.0966 32.3108 31.6983 32.3141 31.2849C32.3175 30.8715 32.473 30.476 32.7472 30.1837C33.0214 29.8913 33.3924 29.7255 33.7801 29.7219C34.1679 29.7183 34.5414 29.8773 34.8204 30.1645L45.9548 42.0357C46.6004 42.7239 47.0401 43.6008 47.2182 44.5554C47.3963 45.51 47.3049 46.4995 46.9555 47.3988C46.6062 48.298 46.0145 49.0666 45.2554 49.6073C44.4963 50.148 43.6039 50.4366 42.6909 50.4365Z" fill="white"/>
<path d="M28.0808 23.6321H10.3342C9.54978 23.6321 8.79746 23.2998 8.24277 22.7085C7.68808 22.1171 7.37646 21.315 7.37646 20.4786V15.7484C7.37646 15.3302 7.53228 14.9292 7.80962 14.6335C8.08696 14.3378 8.46312 14.1717 8.85534 14.1717H29.5597C29.9519 14.1717 30.328 14.3378 30.6054 14.6335C30.8827 14.9292 31.0385 15.3302 31.0385 15.7484V20.4786C31.0385 21.315 30.7269 22.1171 30.1722 22.7085C29.6175 23.2998 28.8652 23.6321 28.0808 23.6321ZM10.3342 17.3252V20.4786H28.0808V17.3252H10.3342Z" fill="#FFE605"/>
<path d="M25.1231 33.0924H13.2921C12.1154 33.0924 10.987 32.5941 10.1549 31.707C9.3229 30.8199 8.85547 29.6168 8.85547 28.3622V22.0553C8.85547 21.6371 9.01128 21.2361 9.28862 20.9404C9.56597 20.6447 9.94212 20.4786 10.3343 20.4786H28.0809C28.4731 20.4786 28.8493 20.6447 29.1266 20.9404C29.404 21.2361 29.5598 21.6371 29.5598 22.0553V28.3622C29.5598 29.6168 29.0923 30.8199 28.2603 31.707C27.4283 32.5941 26.2998 33.0924 25.1231 33.0924ZM11.8132 23.632V28.3622C11.8132 28.7804 11.969 29.1815 12.2464 29.4772C12.5237 29.7728 12.8999 29.939 13.2921 29.939H25.1231C25.5154 29.939 25.8915 29.7728 26.1689 29.4772C26.4462 29.1815 26.602 28.7804 26.602 28.3622V23.632H11.8132Z" fill="#FFE605"/>
<path d="M25.1234 17.3251H13.2924C12.9001 17.3251 12.524 17.159 12.2466 16.8633C11.9693 16.5676 11.8135 16.1666 11.8135 15.7484V12.5949C11.8135 11.3404 12.2809 10.1373 13.1129 9.25019C13.945 8.3631 15.0734 7.86475 16.2501 7.86475H22.1656C23.3423 7.86475 24.4708 8.3631 25.3028 9.25019C26.1348 10.1373 26.6023 11.3404 26.6023 12.5949V15.7484C26.6023 16.1666 26.4465 16.5676 26.1691 16.8633C25.8918 17.159 25.5156 17.3251 25.1234 17.3251ZM14.7712 14.1717H23.6445V12.5949C23.6445 12.1768 23.4887 11.7757 23.2114 11.48C22.934 11.1843 22.5579 11.0182 22.1656 11.0182H16.2501C15.8579 11.0182 15.4817 11.1843 15.2044 11.48C14.927 11.7757 14.7712 12.1768 14.7712 12.5949V14.1717Z" fill="#FFE605"/>
</svg>
