<svg width="23" height="23" viewBox="0 0 23 23" fill="none" xmlns="http://www.w3.org/2000/svg">
<path d="M22.4387 19.63L17.5731 14.8036C18.5784 13.3006 19.1669 11.5011 19.1669 9.56649C19.1669 4.32465 14.8677 0.0600586 9.58343 0.0600586C4.29913 0.0600586 0 4.32465 0 9.56649C0 14.8083 4.29913 19.0729 9.58343 19.0729C11.5337 19.0729 13.3478 18.4892 14.8629 17.492L19.7285 22.3184C20.476 23.0609 21.6911 23.0609 22.4387 22.3184C23.1871 21.576 23.1871 20.3725 22.4387 19.63ZM2.87503 9.56649C2.87503 5.89701 5.88423 2.91199 9.58343 2.91199C13.2826 2.91199 16.2918 5.89701 16.2918 9.56649C16.2918 13.236 13.2826 16.221 9.58343 16.221C5.88423 16.221 2.87503 13.236 2.87503 9.56649Z" fill="#A7A7A7"/>
</svg>
