<svg width="83" height="17" viewBox="0 0 83 17" fill="none" xmlns="http://www.w3.org/2000/svg">
<path d="M8.12201 2.16987L9.40467 6.27344C9.45686 6.44042 9.61151 6.55411 9.78645 6.55411L13.9794 6.55411L10.5741 9.12595C10.4393 9.22775 10.383 9.40325 10.4333 9.56448L11.7259 13.6997L8.36308 11.1599C8.22043 11.0522 8.0236 11.0522 7.88094 11.1599L4.51814 13.6997L5.81068 9.56448C5.86107 9.40325 5.80476 9.22775 5.66997 9.12595L2.26467 6.55411L6.45757 6.55411C6.63252 6.55411 6.78717 6.44042 6.83936 6.27344L8.12201 2.16987Z" stroke="#797979" stroke-width="0.8" stroke-linejoin="round"/>
<path d="M24.8022 2.16987L26.0848 6.27344C26.137 6.44042 26.2917 6.55411 26.4666 6.55411L30.6595 6.55411L27.2542 9.12595C27.1194 9.22775 27.0631 9.40325 27.1135 9.56448L28.4061 13.6997L25.0433 11.1599C24.9006 11.0522 24.7038 11.0522 24.5611 11.1599L21.1983 13.6997L22.4909 9.56448C22.5412 9.40325 22.4849 9.22775 22.3501 9.12595L18.9448 6.55411L23.1378 6.55411C23.3127 6.55411 23.4673 6.44042 23.5195 6.27344L24.8022 2.16987Z" stroke="#797979" stroke-width="0.8" stroke-linejoin="round"/>
<path d="M41.4829 2.16987L42.7655 6.27344C42.8177 6.44042 42.9723 6.55411 43.1473 6.55411L47.3402 6.55411L43.9349 9.12595C43.8001 9.22775 43.7438 9.40325 43.7942 9.56448L45.0867 13.6997L41.7239 11.1599C41.5813 11.0522 41.3844 11.0522 41.2418 11.1599L37.879 13.6997L39.1715 9.56448C39.2219 9.40325 39.1656 9.22775 39.0308 9.12595L35.6255 6.55411L39.8184 6.55411C39.9934 6.55411 40.148 6.44042 40.2002 6.27344L41.4829 2.16987Z" stroke="#797979" stroke-width="0.8" stroke-linejoin="round"/>
<path d="M58.163 2.16987L59.4457 6.27344C59.4979 6.44042 59.6525 6.55411 59.8275 6.55411L64.0204 6.55411L60.6151 9.12595C60.4803 9.22775 60.424 9.40325 60.4744 9.56448L61.7669 13.6997L58.4041 11.1599C58.2614 11.0522 58.0646 11.0522 57.922 11.1599L54.5592 13.6997L55.8517 9.56448C55.9021 9.40325 55.8458 9.22775 55.711 9.12595L52.3057 6.55411L56.4986 6.55411C56.6735 6.55411 56.8282 6.44042 56.8804 6.27344L58.163 2.16987Z" stroke="#797979" stroke-width="0.8" stroke-linejoin="round"/>
<path d="M74.8437 2.16987L76.1263 6.27344C76.1785 6.44042 76.3332 6.55411 76.5081 6.55411L80.701 6.55411L77.2957 9.12595C77.1609 9.22775 77.1046 9.40325 77.155 9.56448L78.4476 13.6997L75.0848 11.1599C74.9421 11.0522 74.7453 11.0522 74.6026 11.1599L71.2398 13.6997L72.5324 9.56448C72.5828 9.40325 72.5264 9.22775 72.3916 9.12595L68.9864 6.55411L73.1793 6.55411C73.3542 6.55411 73.5088 6.44042 73.561 6.27344L74.8437 2.16987Z" stroke="#797979" stroke-width="0.8" stroke-linejoin="round"/>
</svg>
