<svg width="58" height="52" viewBox="0 0 58 52" fill="none" xmlns="http://www.w3.org/2000/svg">
<path d="M57.9854 50.1988C57.609 51.1542 56.8939 51.4643 55.8892 51.4588C50.1127 51.4322 44.3376 51.4462 38.561 51.4462C36.9714 51.4462 36.3249 50.6667 36.6089 49.1106C36.7951 48.0923 36.9756 47.0726 37.1547 46.0542C37.3996 44.6532 38.214 43.8164 39.6105 43.5245C41.119 43.2102 42.6261 42.8889 44.1766 42.5607C43.761 41.9712 43.3692 41.432 42.997 40.8788C42.8402 40.6455 42.7031 40.3941 42.594 40.1343C42.3533 39.5616 42.0566 39.0922 41.4969 38.7151C40.4921 38.039 40.3844 36.6603 41.1065 35.6587C41.1988 35.5302 41.203 35.2843 41.1582 35.1167C40.1745 31.4443 43.1943 27.7831 46.9222 28.1393C47.0341 28.1505 47.153 28.1477 47.258 28.184C47.7422 28.3544 48.2138 28.5011 48.6574 28.0765C48.7203 28.0164 48.8687 28.0471 48.9904 28.0345C48.9512 28.2385 48.9176 28.4131 48.898 28.5151C49.5543 28.6073 50.212 28.5989 50.7956 28.8C52.9842 29.5571 53.9553 31.5533 53.3956 34.0076C53.341 34.2465 53.2584 34.4797 53.2206 34.72C53.1619 35.0916 53.1661 35.4198 53.4613 35.7579C54.2422 36.6547 53.8839 38.1912 52.8176 38.9092C52.5448 39.0936 52.3251 39.3884 52.1487 39.6747C51.5694 40.6148 51.0195 41.5731 50.4359 42.5634C50.9313 42.6738 51.5232 42.8121 52.118 42.9378C53.0765 43.1404 54.0379 43.3331 54.9964 43.5343C56.267 43.8011 57.0829 44.642 57.3235 45.9187C57.5418 47.0809 57.7657 48.2431 57.9868 49.4053C57.9854 49.6722 57.9854 49.9348 57.9854 50.1988ZM57.0996 48.9877C56.9037 47.9135 56.7386 46.8952 56.5287 45.8866C56.351 45.0303 55.7926 44.5065 54.9432 44.3151C53.9511 44.0916 52.9576 43.8709 51.9584 43.6893C51.7569 43.653 51.4742 43.7382 51.3119 43.8695C48.8491 45.8754 45.7173 45.874 43.2726 43.8695C43.1019 43.7298 42.7913 43.6572 42.5716 43.6963C41.5892 43.8709 40.6167 44.0986 39.6413 44.3068C38.6842 44.5107 38.1426 45.1169 37.9537 46.057C37.8656 46.4998 37.7928 46.9454 37.7172 47.3897C37.6277 47.9149 37.5423 48.4401 37.4541 48.9695C38.9347 48.9695 40.3186 48.9695 41.6886 48.9695C41.7138 48.8857 41.7306 48.8508 41.7348 48.8145C41.7739 48.5323 41.6732 48.1328 42.1294 48.144C42.5842 48.1551 42.4862 48.5491 42.4918 48.8326C42.503 49.4291 42.4946 50.0256 42.4946 50.6234C45.7061 50.6234 48.8421 50.6234 52.0088 50.6234C52.0088 49.918 51.9836 49.2587 52.0256 48.6035C52.0368 48.4387 52.2621 48.2864 52.388 48.1286C52.5196 48.2781 52.6735 48.4136 52.7728 48.5812C52.8316 48.6804 52.805 48.8312 52.819 48.9877C54.2338 48.9877 55.6233 48.9877 57.0996 48.9877ZM42.2021 35.9087C41.9209 36.2188 41.6452 36.3934 41.5724 36.6295C41.3499 37.3447 41.7488 38.0222 42.4358 38.3239C42.6401 38.4133 42.8556 38.6145 42.941 38.817C43.4112 39.9359 43.9555 41.0017 44.8217 41.8748C46.3162 43.382 48.2865 43.4239 49.6873 41.8301C50.4191 40.9976 50.9299 39.9639 51.4868 38.9902C51.6758 38.6592 51.7961 38.3756 52.2089 38.2317C52.7924 38.0278 53.0891 37.5068 52.9855 36.8796C52.9338 36.5667 52.6623 36.2887 52.4902 35.9953C52.2257 34.6683 51.5218 33.6486 50.31 32.9655C49.9616 32.7686 49.6985 32.7616 49.4522 33.2002C49.0492 33.921 48.3747 34.2395 47.5435 34.1221C47.1922 34.0718 46.8536 33.9391 46.5065 33.8497C45.5186 33.5941 44.5321 33.3315 43.4993 33.5746C42.6443 33.7757 42.2203 34.3009 42.2063 35.1768C42.1979 35.4771 42.2021 35.7774 42.2021 35.9087ZM50.5185 43.4505C49.7712 43.1264 49.6201 43.1264 48.9918 43.4379C47.8107 44.026 46.6157 44.0358 45.4696 43.3946C44.9449 43.0999 44.5321 43.2661 44.0367 43.4309C45.7369 44.9759 48.9498 44.9675 50.5185 43.4505ZM37.3506 49.7993C37.3772 50.3818 37.6668 50.6402 38.165 50.6597C38.729 50.6821 39.2957 50.6695 39.861 50.6709C40.4739 50.6723 41.0855 50.6709 41.697 50.6709C41.697 50.3259 41.697 50.0745 41.697 49.7979C40.2459 49.7993 38.8381 49.7993 37.3506 49.7993ZM52.8162 49.7755C52.8162 50.108 52.8162 50.3622 52.8162 50.6597C54.0491 50.6597 55.2511 50.6821 56.4517 50.6486C56.9177 50.6346 57.1892 50.3329 57.1682 49.8049C57.0003 49.7951 56.8534 49.7783 56.7064 49.7783C55.4288 49.7741 54.1498 49.7755 52.8162 49.7755Z" fill="black"/>
<path d="M25.7753 15.1372C25.154 14.0155 24.5453 12.9036 23.9184 11.8029C23.8442 11.6729 23.6679 11.5919 23.5279 11.5081C22.3119 10.7789 22.0222 9.35274 22.8465 8.20171C22.9248 8.09136 22.9458 7.89859 22.9192 7.7589C22.491 5.5225 23.055 3.55012 24.6432 1.9493C25.8789 0.703283 27.4699 0.439274 29.1575 0.787096C29.5647 0.870908 29.9286 1.02177 30.2854 0.669758C30.375 0.581755 30.5597 0.58874 30.7458 0.538452C30.6842 0.777318 30.6366 0.961705 30.5821 1.16984C32.4964 0.944943 33.9167 1.67272 34.8249 3.28471C35.449 4.39243 35.3665 5.61609 35.0586 6.80903C34.9019 7.41387 34.8445 7.8944 35.2951 8.46572C36.0088 9.37229 35.54 10.8292 34.4765 11.4969C34.2582 11.6338 34.0777 11.8657 33.9419 12.0906C33.3458 13.0838 32.7735 14.0895 32.1759 15.1204C33.392 15.3775 34.7088 15.6526 36.0228 15.9376C36.4635 16.0326 36.9211 16.1024 37.3339 16.2729C38.2911 16.6668 38.869 17.4057 39.0579 18.4227C39.2776 19.6072 39.4792 20.7945 39.6821 21.9819C39.8752 23.112 39.1839 23.9724 38.0364 23.9738C32.0164 23.9822 25.995 23.9822 19.975 23.9738C18.7897 23.9724 18.0999 23.1217 18.3014 21.9567C18.4973 20.8253 18.7058 19.6966 18.9031 18.5665C19.141 17.1976 19.9526 16.3511 21.3156 16.0647C22.8395 15.749 24.362 15.4319 25.7753 15.1372ZM38.834 21.5461C38.6451 20.5068 38.4716 19.5471 38.2967 18.5875C38.1176 17.6055 37.5271 17.0328 36.5545 16.833C35.6141 16.6402 34.678 16.4195 33.732 16.2547C33.5137 16.217 33.2059 16.2812 33.0393 16.4195C30.6087 18.4226 27.4377 18.4199 24.9973 16.4139C24.8293 16.2757 24.5243 16.2114 24.3046 16.2477C23.451 16.3888 22.6058 16.5816 21.7578 16.7618C20.3332 17.0635 19.8924 17.5091 19.6293 18.9367C19.4712 19.793 19.3369 20.6549 19.1872 21.5475C20.6593 21.5475 22.0306 21.5475 23.4132 21.5475C23.4342 21.4553 23.4356 21.3756 23.4692 21.3142C23.5909 21.0963 23.7085 20.7177 23.8554 20.7037C24.3018 20.6604 24.2304 21.0641 24.2346 21.3547C24.2416 21.9526 24.236 22.5504 24.236 23.1762C27.4307 23.1762 30.5667 23.1762 33.7516 23.1762C33.7516 22.5784 33.7418 22.0168 33.7558 21.4567C33.7628 21.1563 33.6383 20.7275 34.1028 20.6912C34.636 20.6493 34.4933 21.1228 34.5478 21.4301C34.5534 21.4636 34.5814 21.493 34.6108 21.5475C35.9878 21.5461 37.3773 21.5461 38.834 21.5461ZM23.9156 8.60401C23.325 8.83729 23.1543 9.17254 23.2649 9.79136C23.3572 10.3012 23.6441 10.684 24.1227 10.8223C24.4921 10.9298 24.6138 11.1435 24.7328 11.4578C25.1484 12.5586 25.7151 13.5755 26.5505 14.422C28.0325 15.9236 29.972 15.9139 31.4441 14.3983C32.2851 13.5322 32.8378 12.4901 33.3052 11.3908C33.399 11.1715 33.6313 10.9675 33.851 10.8544C34.3841 10.5806 34.7144 10.1964 34.7465 9.58881C34.7717 9.09431 34.6206 8.71157 34.1448 8.64452C33.9013 7.2225 33.2576 6.16367 32.0136 5.50574C31.6666 5.32275 31.4329 5.35069 31.1936 5.73902C30.6618 6.60369 29.895 6.85931 28.8987 6.5953C28.644 6.52686 28.3963 6.40952 28.1388 6.38019C27.211 6.27123 26.2749 6.09103 25.3499 6.12875C24.4193 6.16646 23.9282 6.84115 23.9156 7.77147C23.9128 8.05225 23.9156 8.33302 23.9156 8.60401ZM25.7571 15.9669C27.4097 17.5231 30.743 17.5259 32.2641 15.9683C31.7183 15.784 31.2426 15.675 30.666 15.9921C29.5759 16.5913 28.3977 16.5858 27.3048 15.9921C26.7464 15.689 26.2847 15.7798 25.7571 15.9669ZM19.0836 22.3646C19.1886 22.9304 19.3243 23.1623 19.7133 23.1734C20.9433 23.2069 22.1762 23.186 23.4216 23.186C23.4216 22.8927 23.4216 22.6412 23.4216 22.3646C21.9663 22.3646 20.5473 22.3646 19.0836 22.3646ZM38.9334 22.3786C37.4431 22.3786 36.0074 22.3786 34.5744 22.3786C34.5744 22.6747 34.5744 22.9262 34.5744 23.2042C35.7807 23.2042 36.9449 23.2139 38.1092 23.2C38.5892 23.1944 38.8634 22.9248 38.9334 22.3786Z" fill="black"/>
<path d="M12.4646 28.0135C12.41 28.2552 12.3736 28.4159 12.3485 28.5262C12.9936 28.61 13.6499 28.5933 14.2334 28.7888C16.4849 29.5445 17.4771 31.6524 16.8166 34.1947C16.6515 34.8303 16.5745 35.3471 17.0517 35.9576C17.7332 36.8278 17.27 38.2415 16.2736 38.912C16.0148 39.0866 15.8007 39.3646 15.6341 39.6356C15.0478 40.5924 14.4909 41.5674 13.9031 42.5704C14.7763 42.759 15.7419 42.9699 16.7088 43.1752C17.3176 43.3038 17.9319 43.4071 18.535 43.5524C19.723 43.8388 20.5025 44.5623 20.7474 45.7762C20.9867 46.9566 21.2022 48.1411 21.3883 49.3299C21.6024 50.6904 20.9265 51.4461 19.5327 51.4475C13.6457 51.4503 7.75998 51.4503 1.87291 51.4475C0.477754 51.4475 -0.186939 50.6276 0.0663441 49.2447C0.26925 48.1341 0.460961 47.0222 0.663867 45.9117C0.89616 44.6434 1.72458 43.8052 3.00078 43.537C4.43932 43.2353 5.87645 42.935 7.31499 42.6319C7.41854 42.6095 7.52069 42.5746 7.5081 42.5774C6.89518 41.4738 6.29626 40.3787 5.67634 39.2961C5.59238 39.1494 5.41187 39.0475 5.25794 38.9553C4.0377 38.2233 3.75224 36.7957 4.59185 35.6517C4.66321 35.5539 4.6968 35.3863 4.67021 35.2675C4.23501 33.3203 4.68281 31.5463 5.85126 29.9887C7.11208 28.3069 8.88646 27.8543 10.8945 28.244C11.3115 28.3251 11.6754 28.448 12.035 28.1197C12.1148 28.0443 12.2757 28.0569 12.4646 28.0135ZM20.5794 49.0184C20.3485 47.8115 20.1904 46.6954 19.9064 45.6114C19.7258 44.9199 19.1689 44.4855 18.4524 44.3235C17.4421 44.0958 16.429 43.8751 15.4116 43.6851C15.2241 43.6502 14.9596 43.72 14.8113 43.8402C12.3009 45.8796 9.20271 45.8894 6.72866 43.8625C6.57753 43.7382 6.31865 43.6404 6.13673 43.6739C5.06343 43.8723 3.99153 44.0888 2.92942 44.3458C2.22274 44.5176 1.69239 44.9898 1.52167 45.6868C1.25859 46.7582 1.10186 47.8562 0.893361 48.9834C2.35568 48.9834 3.75783 48.9834 4.95148 48.9834C5.23555 48.6161 5.43286 48.1607 5.61197 48.1677C6.13533 48.1886 5.95622 48.6873 5.97021 49.0142C5.9926 49.552 5.97581 50.0912 5.97581 50.6178C9.19012 50.6178 12.3247 50.6178 15.4914 50.6178C15.4914 49.985 15.4858 49.4025 15.4942 48.82C15.4984 48.5337 15.4074 48.1495 15.8636 48.1369C16.2666 48.1272 16.247 48.468 16.268 48.753C16.2736 48.8242 16.2988 48.8954 16.3212 48.9918C16.4989 49.0002 16.6655 49.0156 16.8334 49.0156C18.0396 49.0198 19.2445 49.0184 20.5794 49.0184ZM13.1769 32.8034C12.6689 33.7589 11.9636 34.3246 10.8386 34.0969C10.5447 34.0369 10.2606 33.9251 9.96956 33.8511C9.0012 33.6038 8.03285 33.3412 7.01692 33.5661C6.10455 33.7687 5.66375 34.3051 5.65815 35.2326C5.65535 35.5315 5.65815 35.8305 5.65815 36.1448C5.15439 36.1378 5.01305 36.4367 4.97807 36.8292C4.9193 37.4983 5.27193 38.0319 5.87785 38.3169C6.09755 38.4203 6.33264 38.6284 6.4222 38.8449C6.89098 39.9876 7.45772 41.0632 8.34911 41.9376C9.79184 43.3512 11.681 43.3959 13.0565 41.9264C13.752 41.1847 14.267 40.2614 14.7861 39.3743C15.0716 38.8854 15.1681 38.2932 15.8468 38.1367C16.0036 38.1004 16.1449 37.9076 16.2512 37.7582C16.6571 37.1882 16.5115 36.5052 15.9518 36.1517C15.8594 36.0931 15.8104 35.9143 15.7993 35.7858C15.6901 34.4951 14.4853 33.094 13.1769 32.8034ZM7.48011 43.4239C9.21391 44.9814 12.564 44.9702 13.9913 43.4211C13.4441 43.2283 12.96 43.1361 12.3834 43.4532C11.3129 44.0427 10.1557 44.0413 9.07957 43.4644C8.53102 43.1697 8.06224 43.2088 7.48011 43.4239ZM0.840186 49.8062C0.883565 50.351 1.06128 50.6318 1.49788 50.6429C2.71532 50.6737 3.93275 50.6541 5.15439 50.6541C5.15439 50.3426 5.15439 50.0772 5.15439 49.8076C3.68787 49.8062 2.26473 49.8062 0.840186 49.8062ZM16.3044 50.6611C17.5317 50.6611 18.7141 50.6807 19.8952 50.6513C20.3639 50.6401 20.6368 50.3566 20.6326 49.8118C19.1773 49.8118 17.7611 49.8118 16.3044 49.8118C16.3044 50.087 16.3044 50.3412 16.3044 50.6611Z" fill="black"/>
<path d="M28.3081 25.5522C28.7727 25.5522 29.1813 25.5522 29.678 25.5522C29.678 25.7478 29.678 25.9476 29.678 26.1459C29.678 28.7469 29.6864 31.3465 29.6682 33.9475C29.6655 34.3372 29.7886 34.5453 30.1286 34.7395C33.0113 36.3808 35.8828 38.0431 38.7556 39.7012C38.9334 39.8032 39.1069 39.9149 39.3378 40.056C39.1195 40.4401 38.9124 40.8075 38.6759 41.2238C38.4688 41.1134 38.2897 41.024 38.1161 40.9235C35.2419 39.2682 32.362 37.6199 29.4989 35.9436C29.1155 35.7187 28.8468 35.7411 28.4788 35.9562C25.6297 37.6185 22.768 39.2598 19.9106 40.9067C19.7342 41.0087 19.5495 41.0981 19.3172 41.2196C19.0892 40.8285 18.8764 40.4611 18.6414 40.0546C19.2543 39.697 19.8364 39.3562 20.4213 39.0181C22.8716 37.6059 25.3177 36.1881 27.7763 34.794C28.1639 34.5747 28.3249 34.3414 28.3193 33.8776C28.2927 31.3144 28.3067 28.7525 28.3067 26.1892C28.3081 25.9867 28.3081 25.7841 28.3081 25.5522Z" fill="black"/>
<path d="M57.0997 48.9877C55.6234 48.9877 54.2339 48.9877 52.8219 48.9877C52.8079 48.8312 52.8345 48.6804 52.7757 48.5812C52.6764 48.4136 52.5225 48.2781 52.3909 48.1286C52.265 48.2864 52.0397 48.4387 52.0285 48.6035C51.9865 49.2587 52.0117 49.918 52.0117 50.6234C48.845 50.6234 45.709 50.6234 42.4975 50.6234C42.4975 50.0255 42.5059 49.4291 42.4947 48.8326C42.4891 48.5491 42.5871 48.1537 42.1323 48.144C41.6747 48.1328 41.7754 48.5337 41.7376 48.8145C41.732 48.8508 41.7167 48.8857 41.6915 48.9695C40.3229 48.9695 38.9389 48.9695 37.457 48.9695C37.5452 48.4387 37.6306 47.9135 37.7201 47.3896C37.7957 46.9454 37.8684 46.4984 37.9566 46.057C38.1441 45.1169 38.6857 44.5107 39.6442 44.3067C40.621 44.0986 41.5921 43.8709 42.5745 43.6963C42.7942 43.6572 43.1048 43.7298 43.2755 43.8695C45.7202 45.874 48.8506 45.8754 51.3148 43.8695C51.4771 43.7382 51.7598 43.653 51.9613 43.6893C52.9618 43.8709 53.954 44.0902 54.9461 44.3151C55.7955 44.5079 56.3539 45.0303 56.5316 45.8866C56.7401 46.8952 56.9052 47.9135 57.0997 48.9877Z" fill="#F4AFFF"/>
<path d="M42.2021 35.9087C42.2021 35.7774 42.1979 35.4771 42.2035 35.1768C42.2189 34.3009 42.6429 33.7757 43.4965 33.5746C44.5293 33.3315 45.5172 33.5941 46.5038 33.8497C46.8494 33.9391 47.1894 34.0732 47.5407 34.1221C48.3719 34.2395 49.0478 33.921 49.4494 33.2002C49.6943 32.7616 49.9573 32.7686 50.3072 32.9655C51.519 33.6486 52.2229 34.6683 52.4874 35.9953C52.6595 36.2887 52.931 36.5653 52.9827 36.8796C53.0863 37.5068 52.7882 38.0278 52.2061 38.2317C51.7947 38.3756 51.673 38.6592 51.484 38.9902C50.9285 39.9639 50.4163 40.9976 49.6845 41.8301C48.2851 43.4239 46.3148 43.382 44.8189 41.8748C43.9527 41.0017 43.4084 39.9359 42.9382 38.817C42.8528 38.6145 42.6373 38.4147 42.433 38.3239C41.746 38.0222 41.3471 37.3433 41.5696 36.6295C41.6466 36.3934 41.9209 36.2188 42.2021 35.9087Z" fill="white"/>
<path d="M50.5187 43.4504C48.9514 44.966 45.7371 44.9758 44.0369 43.4309C44.5322 43.266 44.9436 43.0998 45.4698 43.3946C46.6159 44.0357 47.8109 44.0245 48.992 43.4379C49.6189 43.1264 49.7714 43.1278 50.5187 43.4504Z" fill="white"/>
<path d="M37.3506 49.7993C38.8367 49.7993 40.2458 49.7993 41.6984 49.7993C41.6984 50.0745 41.6984 50.3273 41.6984 50.6724C41.0869 50.6724 40.4739 50.6738 39.8624 50.6724C39.2971 50.671 38.7303 50.6835 38.1664 50.6612C37.6668 50.6402 37.3786 50.3818 37.3506 49.7993Z" fill="white"/>
<path d="M52.8164 49.7755C54.15 49.7755 55.429 49.7741 56.7066 49.7769C56.8535 49.7769 57.0005 49.7937 57.1684 49.8034C57.1894 50.3329 56.9179 50.6346 56.4519 50.6471C55.2513 50.6821 54.0492 50.6583 52.8164 50.6583C52.8164 50.3622 52.8164 50.108 52.8164 49.7755Z" fill="white"/>
<path d="M38.8339 21.5461C37.3772 21.5461 35.989 21.5461 34.6107 21.5461C34.5813 21.4916 34.5533 21.4623 34.5477 21.4287C34.4931 21.1214 34.6359 20.6493 34.1027 20.6898C33.6381 20.7261 33.7627 21.155 33.7557 21.4553C33.7417 22.0154 33.7515 22.577 33.7515 23.1748C30.5665 23.1748 27.4306 23.1748 24.2359 23.1748C24.2359 22.549 24.2401 21.9512 24.2345 21.3533C24.2317 21.0628 24.303 20.6591 23.8552 20.7024C23.7069 20.7163 23.5908 21.0949 23.469 21.3128C23.4354 21.3729 23.434 21.4525 23.4131 21.5461C22.0291 21.5461 20.6591 21.5461 19.187 21.5461C19.3381 20.6535 19.4711 19.7916 19.6292 18.9353C19.8923 17.5077 20.3331 17.0621 21.7576 16.7604C22.6056 16.5802 23.4508 16.3874 24.3044 16.2463C24.5241 16.21 24.8292 16.2757 24.9971 16.4126C27.4376 18.4185 30.6071 18.4213 33.0392 16.4181C33.2071 16.2799 33.5136 16.2156 33.7319 16.2533C34.6778 16.4181 35.6126 16.6375 36.5544 16.8316C37.5269 17.0314 38.1188 17.6041 38.2966 18.5861C38.4715 19.5471 38.645 20.5068 38.8339 21.5461Z" fill="#00A3FF"/>
<path d="M23.9155 8.60402C23.9155 8.33443 23.9127 8.05226 23.9155 7.77149C23.9281 6.84117 24.4192 6.16648 25.3498 6.12876C26.2748 6.09105 27.2109 6.27264 28.1387 6.3802C28.3976 6.41093 28.6439 6.52827 28.8986 6.59532C29.8949 6.86072 30.6617 6.6051 31.1935 5.73903C31.4314 5.3521 31.6651 5.32276 32.0135 5.50575C33.2575 6.16229 33.9012 7.22112 34.1447 8.64453C34.6205 8.71158 34.7716 9.09433 34.7464 9.58882C34.7143 10.1979 34.3854 10.582 33.8509 10.8544C33.6312 10.9675 33.3975 11.1715 33.3051 11.3908C32.8363 12.4915 32.285 13.5322 31.444 14.3983C29.9719 15.9139 28.0324 15.9237 26.5504 14.422C25.715 13.5755 25.1483 12.5586 24.7327 11.4578C24.6137 11.1421 24.492 10.9284 24.1226 10.8223C23.644 10.684 23.3571 10.3012 23.2648 9.79137C23.1542 9.17255 23.3249 8.8373 23.9155 8.60402Z" fill="white"/>
<path d="M25.7571 15.9669C26.2846 15.7797 26.7464 15.6889 27.3048 15.992C28.3977 16.5857 29.5759 16.5913 30.666 15.992C31.2425 15.6749 31.7183 15.7839 32.2641 15.9683C30.7416 17.5244 27.4083 17.523 25.7571 15.9669Z" fill="white"/>
<path d="M19.0835 22.3646C20.5472 22.3646 21.9662 22.3646 23.4215 22.3646C23.4215 22.6412 23.4215 22.8926 23.4215 23.186C22.1761 23.186 20.9446 23.2069 19.7132 23.1734C19.3256 23.1636 19.1898 22.9304 19.0835 22.3646Z" fill="white"/>
<path d="M38.9334 22.3787C38.8635 22.9248 38.5892 23.1944 38.1092 23.2C36.945 23.214 35.7793 23.2042 34.5745 23.2042C34.5745 22.9248 34.5745 22.6748 34.5745 22.3787C36.0088 22.3787 37.4431 22.3787 38.9334 22.3787Z" fill="white"/>
<path d="M20.5795 49.0184C19.2459 49.0184 18.041 49.0198 16.8348 49.017C16.6683 49.017 16.5003 49.0016 16.3226 48.9933C16.3002 48.8969 16.2751 48.8256 16.2695 48.7544C16.2485 48.4708 16.2681 48.1286 15.865 48.1384C15.4088 48.1496 15.4998 48.5337 15.4956 48.8215C15.4872 49.4039 15.4928 49.985 15.4928 50.6192C12.3261 50.6192 9.19153 50.6192 5.97722 50.6192C5.97722 50.0912 5.99401 49.552 5.97162 49.0156C5.95763 48.6887 6.13535 48.1901 5.61339 48.1691C5.43427 48.1621 5.23696 48.6175 4.9529 48.9849C3.75925 48.9849 2.3571 48.9849 0.894775 48.9849C1.10468 47.8576 1.26001 46.7597 1.52308 45.6883C1.69381 44.9898 2.22416 44.5177 2.93083 44.3473C3.99154 44.0902 5.06344 43.8723 6.13815 43.6754C6.32006 43.6418 6.57894 43.7396 6.73007 43.8639C9.20553 45.8894 12.3023 45.881 14.8127 43.8416C14.9611 43.7215 15.2269 43.6516 15.413 43.6865C16.4304 43.8765 17.4435 44.0972 18.4538 44.3249C19.1689 44.4855 19.7259 44.92 19.9078 45.6128C20.189 46.6954 20.3486 47.8129 20.5795 49.0184Z" fill="#3ED1FF"/>
<path d="M13.1769 32.8035C14.4853 33.094 15.6901 34.4951 15.8007 35.7858C15.8119 35.9143 15.8609 36.0931 15.9532 36.1518C16.513 36.5066 16.6599 37.1897 16.2527 37.7582C16.1463 37.9077 16.005 38.1004 15.8483 38.1367C15.1682 38.2946 15.073 38.8869 14.7876 39.3744C14.2684 40.2614 13.752 41.1833 13.058 41.9265C11.6824 43.396 9.79327 43.3513 8.35054 41.9376C7.45915 41.0646 6.89241 39.9876 6.42363 38.845C6.33407 38.6284 6.09898 38.4189 5.87928 38.3169C5.27336 38.032 4.92073 37.4984 4.9795 36.8293C5.01448 36.4353 5.15582 36.1364 5.65959 36.1448C5.65959 35.8305 5.65819 35.5316 5.65959 35.2326C5.66658 34.3051 6.10598 33.7687 7.01836 33.5662C8.03429 33.3413 9.00124 33.6039 9.97099 33.8511C10.2621 33.9252 10.5461 34.0383 10.84 34.097C11.9637 34.3233 12.6689 33.7575 13.1769 32.8035Z" fill="white"/>
<path d="M7.48022 43.4239C8.06235 43.2088 8.53114 43.1697 9.07968 43.4644C10.1558 44.0413 11.313 44.0441 12.3836 43.4532C12.9601 43.1347 13.4443 43.2283 13.9914 43.4211C12.5641 44.9702 9.21402 44.9828 7.48022 43.4239Z" fill="white"/>
<path d="M0.840088 49.8063C2.26463 49.8063 3.68637 49.8063 5.15569 49.8063C5.15569 50.0759 5.15569 50.3413 5.15569 50.6528C3.93405 50.6528 2.71522 50.6737 1.49918 50.6416C1.06119 50.6318 0.884867 50.3525 0.840088 49.8063Z" fill="white"/>
<path d="M16.3044 50.6612C16.3044 50.3413 16.3044 50.0871 16.3044 49.8119C17.7612 49.8119 19.1787 49.8119 20.6326 49.8119C20.6368 50.3567 20.364 50.6402 19.8952 50.6514C18.7155 50.6807 17.5331 50.6612 16.3044 50.6612Z" fill="white"/>
</svg>
