<svg width="60" height="50" viewBox="0 0 60 50" fill="none" xmlns="http://www.w3.org/2000/svg">
<path d="M4.08456 26.7522C4.06312 26.7567 4.0431 26.7613 4.02166 26.7659C4.04167 26.7613 4.06312 26.7567 4.08456 26.7522ZM4.5006 26.6959C4.47201 26.6989 4.44484 26.7035 4.41768 26.7065C4.44341 26.702 4.47201 26.6989 4.5006 26.6959ZM3.66567 26.8511C3.65566 26.8541 3.64708 26.8572 3.63708 26.8602C3.64708 26.8572 3.65709 26.8541 3.66567 26.8511ZM51.3068 39.6354L43.1905 43.1959L33.4273 47.4791C33.423 47.4806 33.4201 47.4821 33.4158 47.4837L33.3644 47.5065C33.3386 47.5171 33.3115 47.5247 33.2857 47.5369C33.2085 47.5689 33.1313 47.5993 33.0513 47.6252C33.0069 47.6389 32.9612 47.651 32.9169 47.6632C32.8497 47.6815 32.7825 47.7012 32.7139 47.7149C32.661 47.7256 32.6095 47.7347 32.5552 47.7439C32.4937 47.7545 32.4322 47.7636 32.3707 47.7697C32.3135 47.7758 32.2578 47.7789 32.2006 47.7819C32.142 47.7849 32.0834 47.788 32.0248 47.788C31.9247 47.788 31.8246 47.7819 31.726 47.7728C31.7102 47.7712 31.6959 47.7712 31.6802 47.7697C31.593 47.7606 31.5072 47.7469 31.42 47.7302C31.3914 47.7256 31.3642 47.721 31.3356 47.7149C31.3228 47.7119 31.3113 47.7089 31.2985 47.7058C31.2327 47.6906 31.1684 47.6739 31.1026 47.6541C31.0669 47.645 31.0326 47.6358 30.9968 47.6237C30.9182 47.5978 30.8396 47.5674 30.7638 47.5354C30.7366 47.5247 30.7109 47.5171 30.6837 47.505L3.67711 35.6595C1.84855 34.8576 0.857782 32.6163 1.56404 30.617C2.28174 28.5796 4.39623 27.5875 6.25053 28.4L30.252 38.9294L30.6551 39.1059C31.5329 39.4908 32.5137 39.4908 33.393 39.1059L55.0912 29.5884L59.6118 27.6058C60.1494 27.3745 60.0979 26.6913 59.6461 26.4281L34.6253 14.1794C32.9712 13.3699 31.0754 13.3699 29.4213 14.1794L3.25535 26.988C1.96006 27.4886 0.894953 28.5644 0.357395 30.0099C-0.656247 32.735 0.560409 35.8466 3.06949 36.9483L30.0661 48.7907C30.3849 48.9398 30.7195 49.0539 31.064 49.1285C31.0855 49.1331 31.1069 49.1361 31.1298 49.1422C31.247 49.165 31.3671 49.1848 31.4872 49.1985C31.5229 49.203 31.5572 49.2076 31.593 49.2107C31.7345 49.2243 31.8775 49.2335 32.0219 49.2335C32.6524 49.2335 33.2714 49.1026 33.859 48.844L58.5896 37.9997C59.7891 37.4732 59.995 37.003 59.995 35.8299L51.3068 39.6354Z" fill="#00A3FF"/>
<path d="M32.022 45.9664C31.6402 45.9664 31.2571 45.9056 30.8797 45.7854C30.8668 45.7808 30.8539 45.7762 30.8411 45.7702L4.80949 34.334C4.59647 34.2412 4.49496 33.9779 4.58074 33.7482C4.66652 33.5169 4.90814 33.4058 5.12116 33.5002L31.1327 44.9287C31.7289 45.1159 32.3136 45.1159 32.9155 44.9287L58.0321 33.9323C58.2437 33.8379 58.4867 33.9505 58.5711 34.1818C58.6569 34.4131 58.5539 34.6748 58.3409 34.7676L33.2057 45.7702C33.1943 45.7762 33.18 45.7808 33.1671 45.7854C32.7868 45.9056 32.4037 45.9664 32.022 45.9664Z" fill="#3A3F4F"/>
<path d="M32.022 42.8291C31.6388 42.8291 31.2571 42.7683 30.8782 42.6481C30.8654 42.6435 30.8525 42.6389 30.8396 42.6329L4.80949 31.1967C4.59647 31.1039 4.49496 30.8406 4.58074 30.6109C4.66652 30.3796 4.90814 30.27 5.11973 30.3613L31.1313 41.7899C31.7289 41.9771 32.3136 41.9771 32.9141 41.7899L58.0307 30.795C58.2423 30.7007 58.4839 30.8133 58.5697 31.0445C58.6554 31.2743 58.5525 31.5375 58.3395 31.6303L33.2057 42.6329C33.1943 42.6389 33.18 42.6435 33.1671 42.6481C32.7883 42.7698 32.4051 42.8291 32.022 42.8291Z" fill="#3A3F4F"/>
<path d="M30.1574 0.206554L11.7346 9.34058C11.2714 9.57034 11.2714 10.2855 11.7346 10.5152L30.1574 19.6478C30.7136 19.9232 31.3541 19.9232 31.9102 19.6478L50.3331 10.5152C50.7963 10.2855 50.7963 9.57034 50.3331 9.34058L31.9102 0.206554C31.3541 -0.0688514 30.7136 -0.0688514 30.1574 0.206554Z" fill="#3A3F4F"/>
<path d="M30.9351 30.4585C22.8331 30.4585 16.7241 27.4656 16.7241 23.4958V13.1187L29.697 19.5504C30.1202 19.7603 30.5705 19.8653 31.0352 19.8653C31.4998 19.8653 31.9502 19.7603 32.3734 19.5504L45.1475 13.2176V23.4958C45.1461 27.4641 39.0371 30.4585 30.9351 30.4585Z" fill="white"/>
<path d="M32.8013 20.5698C32.2423 20.8467 31.6476 20.9882 31.0343 20.9882C30.4209 20.9882 29.8262 20.8467 29.2672 20.5698L17.7568 14.8639V23.4958C17.7568 26.7215 23.6571 29.3371 30.9356 29.3371C38.2141 29.3371 44.1144 26.7215 44.1144 23.4958V14.9628L32.8013 20.5698Z" fill="#3A3F4F"/>
</svg>
