<svg width="60" height="50" viewBox="0 0 60 50" fill="none" xmlns="http://www.w3.org/2000/svg">
<path d="M19.3528 19.6951C20.1909 19.1567 20.9988 18.6858 21.76 18.1377C22.5015 17.6041 23.1886 17.4964 23.8984 18.2181C25.1125 17.2537 26.3071 16.3038 27.5031 15.3556C29.6159 13.6792 31.7256 12.0013 33.8443 10.3362C34.0301 10.1915 34.2777 10.1353 34.4952 10.0388C34.539 10.1095 34.5828 10.1819 34.6266 10.2526C34.4393 10.4487 34.2717 10.6721 34.0633 10.8392C30.9131 13.3481 27.7599 15.8506 24.6021 18.345C24.3227 18.5652 24.1747 18.7436 24.2623 19.1728C24.3831 19.7594 24.1657 20.2834 23.6854 20.6595C22.4833 21.6045 21.2948 22.5705 20.0867 23.5091C19.2108 24.1889 17.9287 24.0797 17.1555 23.2118C16.6617 22.6573 16.263 22.0047 15.6997 21.394C15.6997 22.4017 15.68 23.4094 15.7027 24.4172C15.8688 31.9937 16.0425 39.5702 16.2146 47.1468C16.2418 48.3216 15.7133 48.9469 14.5973 48.9886C14.1774 49.0047 13.7365 48.9678 13.3332 48.8488C12.6809 48.6576 12.3048 48.1963 12.2293 47.4248C11.7446 42.4134 11.2417 37.4021 10.7207 32.3939C10.692 32.1223 10.8943 31.5919 10.3945 31.5887C9.87799 31.5839 10.1015 32.1142 10.0728 32.3875C9.56539 37.2253 9.08062 42.0663 8.60039 46.9073C8.5279 47.6386 8.49166 48.3779 7.70486 48.6785C6.8184 49.0176 5.9274 49.0963 5.08473 48.5451C4.65131 48.2606 4.52899 47.7961 4.54409 47.2641C4.64376 43.5899 4.74947 39.9158 4.82649 36.2416C4.92314 31.5822 4.99563 26.9213 5.07114 22.2619C5.07567 21.971 5.02885 21.6801 5.0062 21.3891C4.95787 21.3827 4.90955 21.3763 4.86122 21.3682C4.64678 22.1622 4.41119 22.9482 4.22393 23.7486C3.81317 25.494 3.42656 27.2443 3.0309 28.993C2.76813 30.1598 1.60983 30.6854 0.6539 30.0602C0.234074 29.7854 -0.0604079 29.3884 0.0105698 28.8419C0.579902 24.4124 1.17038 19.9876 2.37247 15.6883C2.44345 15.4343 2.5401 15.1884 2.60654 14.9329C3.16531 12.7872 4.53805 11.5448 6.50579 10.9855C9.45666 10.1481 12.3849 10.1497 15.2542 11.3712C16.5197 11.9096 17.4756 12.829 17.9 14.2353C18.3666 15.7831 18.7638 17.355 19.1867 18.9188C19.2471 19.1519 19.2863 19.3897 19.3528 19.6951Z" fill="black"/>
<path d="M20.529 7.65526C20.0382 7.65526 19.564 7.65526 19.0898 7.65526C18.6458 6.04963 19.869 4.03898 21.5634 3.62752C21.9576 3.53109 22.3759 3.5102 22.7821 3.5102C34.0011 3.50537 45.2217 3.50537 56.4407 3.50859C58.5157 3.50859 59.9971 5.09975 59.9986 7.31935C60.0001 15.1289 60.0001 22.9369 59.9986 30.7465C59.9986 33.0577 58.5111 34.6392 56.341 34.6392C45.0676 34.6392 33.7958 34.6408 22.5224 34.6376C20.3946 34.6376 18.753 32.7427 19.0505 30.6099C19.5338 30.6099 20.0231 30.6099 20.5395 30.6099C20.5561 30.8156 20.5637 31.0004 20.5848 31.1852C20.7026 32.1785 21.4426 32.9066 22.3834 32.9596C22.5073 32.9661 22.6326 32.9645 22.758 32.9645C33.8879 32.9645 45.0193 32.9645 56.1492 32.9645C56.2565 32.9645 56.3637 32.9645 56.4694 32.9612C57.6096 32.9211 58.416 32.0805 58.4175 30.8574C58.4266 22.9915 58.4266 15.1257 58.419 7.25988C58.4175 6.04963 57.6383 5.22673 56.5117 5.19137C56.0662 5.1769 55.6207 5.18494 55.1767 5.18494C44.385 5.18494 33.5934 5.18333 22.8002 5.18494C21.2901 5.18494 20.6543 5.82301 20.5652 7.41418C20.5622 7.4849 20.5441 7.55562 20.529 7.65526Z" fill="#00A3FF"/>
<path d="M15.1407 5.03229C15.1468 7.8546 13.0522 10.0967 10.4094 10.0967C7.76962 10.0967 5.64331 7.83852 5.65237 5.04514C5.66143 2.24855 7.79379 -0.0080148 10.423 2.13977e-05C13.0325 0.00805759 15.1362 2.25176 15.1407 5.03229Z" fill="black"/>
<path d="M59.9248 49.0642C55.7008 49.0642 51.6325 49.0642 47.5263 49.0642C47.5263 48.9405 47.5037 48.8296 47.5293 48.7331C47.8012 47.735 48.0624 46.7337 48.363 45.7453C48.6544 44.7858 49.2872 44.1268 50.151 43.7603C52.4646 42.7783 54.7993 42.7719 57.1174 43.733C57.9993 44.0979 58.6532 44.7617 58.9537 45.7437C59.2845 46.8173 59.5865 47.9006 59.9248 49.0642Z" fill="#00A3FF"/>
<path d="M31.0685 49.0641C26.8521 49.0641 22.7837 49.0641 18.6852 49.0641C18.6852 48.9259 18.658 48.7957 18.6897 48.6832C18.9509 47.7221 19.2152 46.7609 19.4946 45.8046C19.8102 44.7262 20.5396 44.0479 21.4956 43.6718C23.6959 42.8071 25.9173 42.8055 28.1207 43.6622C29.1053 44.0447 29.8211 44.7583 30.1473 45.8448C30.4584 46.8847 30.7453 47.9342 31.0685 49.0641Z" fill="#00A3FF"/>
<path d="M45.4785 49.0528C41.2923 49.0528 37.2089 49.0528 33.0317 49.0528C33.3881 47.5453 33.5769 46.0007 34.4679 44.7535C35.2109 43.7152 36.3647 43.3922 37.5215 43.1961C39.1222 42.9261 40.7109 42.9823 42.2634 43.54C43.4277 43.9595 44.2734 44.7278 44.6358 46.0184C44.9137 47.0117 45.1871 48.0049 45.4785 49.0528Z" fill="#FF9900"/>
<path d="M57.015 39.2648C57.009 41.2418 55.4928 42.8329 53.6368 42.8104C51.808 42.7895 50.3235 41.1839 50.334 39.2375C50.3446 37.2606 51.8593 35.6727 53.7153 35.6936C55.5502 35.7145 57.0211 37.3072 57.015 39.2648Z" fill="#4D4D4D"/>
<path d="M39.2568 35.6936C41.0932 35.6984 42.5867 37.2832 42.5882 39.2295C42.5897 41.2097 41.0841 42.8217 39.2417 42.8137C37.4114 42.8056 35.9148 41.2177 35.9073 39.2729C35.8982 37.2976 37.4038 35.6888 39.2568 35.6936Z" fill="#4B4B4B"/>
<path d="M24.8331 35.6936C26.6679 35.6968 28.1554 37.2783 28.1615 39.2328C28.1675 41.2161 26.6724 42.8153 24.8149 42.8105C22.9922 42.8056 21.488 41.208 21.4805 39.2697C21.4744 37.2928 22.9771 35.6904 24.8331 35.6936Z" fill="#505050"/>
</svg>
