<svg width="16" height="14" viewBox="0 0 16 14" fill="none" xmlns="http://www.w3.org/2000/svg">
<path d="M5.11896 13.0801C3.36074 13.0801 1.72178 12.5533 0.342285 11.6444C1.51352 11.7225 3.58049 11.5355 4.86615 10.2723C2.9321 10.1809 2.05989 8.65292 1.94612 7.99994C2.11045 8.06524 2.89418 8.1436 3.33661 7.96076C1.11183 7.38614 0.770523 5.37497 0.846368 4.76117C1.26351 5.06154 1.9714 5.16601 2.2495 5.13989C0.176405 3.61192 0.922213 1.31343 1.2888 0.81717C2.77652 2.94033 5.00616 4.13278 7.76452 4.19911C7.71251 3.96414 7.68505 3.71952 7.68505 3.46827C7.68505 1.66511 9.09992 0.203369 10.8452 0.203369C11.7572 0.203369 12.5789 0.602411 13.1557 1.2407C13.765 1.0936 14.6821 0.749269 15.1305 0.451501C14.9045 1.28731 14.2009 1.98455 13.7754 2.24298C13.7719 2.23415 13.7789 2.25177 13.7754 2.24298C14.1492 2.18473 15.1607 1.98449 15.5603 1.70522C15.3627 2.17477 14.6168 2.95548 14.0046 3.39256C14.1185 8.56657 10.2755 13.0801 5.11896 13.0801Z" fill="#004788"/>
</svg>
